<svg xmlns="http://www.w3.org/2000/svg" viewBox="0 0 70.81 88.5125" x="0px" y="0px"><title>turntable, disco, dj, music, vynil_1</title><g data-name="Layer 3"><path d="M10.32,9.85a.22.22,0,0,0,.22-.22V8.72a.23.23,0,1,0-.45,0v.91A.22.22,0,0,0,10.32,9.85Z"/><path d="M12.19,10.54l.64-.64a.23.23,0,0,0-.32-.32l-.65.64a.24.24,0,0,0,0,.32A.24.24,0,0,0,12.19,10.54Z"/><path d="M12.47,12.13a.23.23,0,0,0,.23.22h.91a.23.23,0,1,0,0-.45H12.7A.23.23,0,0,0,12.47,12.13Z"/><path d="M12.43,14.64a.23.23,0,0,0,.32-.32l-.64-.64a.24.24,0,0,0-.33,0,.24.24,0,0,0,0,.32Z"/><path d="M10.2,15.65a.23.23,0,0,0,.23-.23v-.91a.23.23,0,0,0-.23-.23.24.24,0,0,0-.23.23v.91A.23.23,0,0,0,10.2,15.65Z"/><path d="M8.33,13.6l-.64.64a.23.23,0,1,0,.32.32l.64-.64a.23.23,0,0,0-.32-.32Z"/><path d="M8,12a.22.22,0,0,0-.22-.22H6.91a.23.23,0,1,0,0,.45h.91A.22.22,0,0,0,8,12Z"/><path d="M8.41,10.46a.23.23,0,0,0,.32-.32L8.09,9.5a.23.23,0,0,0-.32.32Z"/><path d="M17.92,7.74a.16.16,0,0,1,.07.07l.53,1a.17.17,0,0,0,.3,0l.53-1a.23.23,0,0,1,.07-.07l1-.53a.17.17,0,0,0,0-.29l-1-.53a.23.23,0,0,1-.07-.07l-.53-1a.17.17,0,0,0-.3,0l-.53,1a.16.16,0,0,1-.07.07l-1,.53a.17.17,0,0,0,0,.29Z"/><path d="M41.83,12.25a.09.09,0,0,1-.06-.06l-.53-1a.17.17,0,0,0-.3,0l-.53,1a.13.13,0,0,1-.07.06l-1,.53a.17.17,0,0,0,0,.3l1,.53a.23.23,0,0,1,.07.07l.53,1a.17.17,0,0,0,.3,0l.53-1a.13.13,0,0,1,.06-.07l1-.53a.17.17,0,0,0,0-.3Z"/><path d="M8.49,19.48a.79.79,0,1,0-.79.78A.79.79,0,0,0,8.49,19.48Z"/><path d="M61.17,18.29a.79.79,0,1,0-.79-.79A.79.79,0,0,0,61.17,18.29Z"/><path d="M53.77,11.78l1.95-.17a.24.24,0,0,1,.23.11l1.14,1.59a.26.26,0,0,0,.47-.11l.31-2a.27.27,0,0,1,.19-.21l2-.52a.26.26,0,0,0,.08-.47l-1.8-1.13a.24.24,0,0,1-.12-.23l.07-1.84a.26.26,0,0,0-.43-.2L56.55,7.87a.29.29,0,0,1-.25.06l-2-.64a.26.26,0,0,0-.31.36l.93,1.9a.26.26,0,0,1,0,.28l-1.31,1.53A.26.26,0,0,0,53.77,11.78Z"/><path d="M49.65,14.52a.33.33,0,0,0-.4.26L49,16.09a.34.34,0,0,0,.26.4.33.33,0,0,0,.4-.25l.29-1.32A.34.34,0,0,0,49.65,14.52Z"/><path d="M52.85,17.35a.34.34,0,1,0-.37-.56l-1.13.72a.34.34,0,0,0-.1.47.33.33,0,0,0,.46.1Z"/><path d="M53.35,20.49,52,20.21a.34.34,0,1,0-.14.66l1.31.28a.33.33,0,0,0,.4-.25A.34.34,0,0,0,53.35,20.49Z"/><path d="M50.61,22.6a.34.34,0,0,0-.47-.11A.35.35,0,0,0,50,23l.73,1.13a.32.32,0,0,0,.46.1.33.33,0,0,0,.11-.46Z"/><path d="M47.66,22.88a.32.32,0,0,0-.4.25L47,24.45a.34.34,0,1,0,.66.14l.28-1.31A.33.33,0,0,0,47.66,22.88Z"/><path d="M45.16,21.29,44,22a.33.33,0,0,0,.36.56l1.14-.72a.35.35,0,0,0,.1-.47A.34.34,0,0,0,45.16,21.29Z"/><path d="M45.25,18.9a.35.35,0,0,0-.26-.4l-1.32-.28a.33.33,0,1,0-.14.65l1.31.29A.34.34,0,0,0,45.25,18.9Z"/><path d="M46.11,15.28a.34.34,0,1,0-.57.36l.73,1.13a.33.33,0,0,0,.46.11.34.34,0,0,0,.1-.47Z"/><path d="M35.82,7.45a28.31,28.31,0,1,0,7,55.73l.42.4a9.82,9.82,0,0,0,6.11,2,10,10,0,0,0,4.12-.87c3-1.37,6.68-5,6.7-14.33V50a.67.67,0,0,0,.21-.23A28.32,28.32,0,0,0,35.82,7.45ZM52.9,63.32a8.87,8.87,0,0,1-8.61-.86A5.71,5.71,0,0,1,42.09,59a5.74,5.74,0,0,0-2.24-3.56l-3.76-3.14a9.5,9.5,0,0,1-1.33-1.46,7.32,7.32,0,0,0-2.3-2.12c-.16-.09-.52-.31-.51-.56s.33-.62.92-.86a2.87,2.87,0,0,1,1.1-.22,3.24,3.24,0,0,1,2.15.86l4.34,3.09a.75.75,0,0,0,1.18-.56c.24-3.38.64-6.69.65-6.82V32.08a1.35,1.35,0,0,1,.89-1.33,1.33,1.33,0,0,1,1.24.19A1.3,1.3,0,0,1,45,32V43.88a.75.75,0,0,0,1.5,0V32h0v-3.5a1.34,1.34,0,0,1,1.6-1.32,1.42,1.42,0,0,1,1.09,1.42V43.53a.75.75,0,0,0,1.5,0V31a1.35,1.35,0,0,1,.48-1,1.32,1.32,0,0,1,1.12-.28,1.41,1.41,0,0,1,1.08,1.42c0,.48,0,1.19,0,2-.18,9.63.14,11.12,1.32,11.27.92.1,1.66-.45,3.54-8.9a1.15,1.15,0,1,1,2.22.46c-.43,1.93-.77,3.43-1,4.59a25.76,25.76,0,0,0-.9,4.71,7.24,7.24,0,0,0,.07.86,31.11,31.11,0,0,1,.19,4.24C58.71,57.12,56.7,61.61,52.9,63.32ZM39.74,35.76a3.92,3.92,0,1,1-3.92-3.92A3.93,3.93,0,0,1,39.74,35.76Zm20.39,11.3c0-.49-.08-.85-.11-1.12a6.24,6.24,0,0,1-.06-.69,27.53,27.53,0,0,1,.86-4.37c.26-1.17.6-2.67,1-4.62a2.64,2.64,0,1,0-5.15-1.08A59.68,59.68,0,0,1,54.92,42c-.23-2.21-.14-6.82-.11-8.8,0-.86,0-1.58,0-2.06a2.85,2.85,0,0,0-4.19-2.61,2.87,2.87,0,0,0-2.31-2.75A2.84,2.84,0,0,0,45,28.52v1a2.88,2.88,0,0,0-2.18-.2.62.62,0,0,0-.11-.17,9.44,9.44,0,0,0-6.86-2.91A9.53,9.53,0,1,0,40.75,43.9c-.08.77-.32,2.85-.51,5.17L37.05,46.8a4.51,4.51,0,0,0-4.76-.86,2.71,2.71,0,0,0-1.84,2.18,2.08,2.08,0,0,0,1.29,2,5.76,5.76,0,0,1,1.84,1.73,10.65,10.65,0,0,0,1.55,1.68l3.76,3.14a4.38,4.38,0,0,1,1.75,2.77,6.59,6.59,0,0,0,1.09,2.51,26.8,26.8,0,1,1,20.9-26.14A26.92,26.92,0,0,1,60.13,47.06Z"/><path d="M35.82,19.72a16.05,16.05,0,0,0-16,16,.75.75,0,0,0,1.5,0A14.55,14.55,0,0,1,35.82,21.22a.75.75,0,0,0,0-1.5Z"/><path d="M35.82,11.29A24.49,24.49,0,0,0,11.35,35.76a.75.75,0,0,0,1.5,0,23,23,0,0,1,23-23,.75.75,0,0,0,0-1.5Z"/><path d="M35.82,15.21A20.57,20.57,0,0,0,15.27,35.76a.75.75,0,0,0,1.5,0,19.08,19.08,0,0,1,19.05-19,.75.75,0,0,0,0-1.5Z"/></g><text x="0" y="85.81" fill="#000000" font-size="5px" font-weight="bold" font-family="'Helvetica Neue', Helvetica, Arial-Unicode, Arial, Sans-serif">Created by Aman</text><text x="0" y="90.81" fill="#000000" font-size="5px" font-weight="bold" font-family="'Helvetica Neue', Helvetica, Arial-Unicode, Arial, Sans-serif">from the Noun Project</text></svg>