<svg xmlns="http://www.w3.org/2000/svg" viewBox="0 0 141.47 211.93"><defs><style>.cls-1{fill:none;stroke-width:11px;}.cls-1,.cls-2{stroke:#f7f5f6;stroke-miterlimit:10;}.cls-2,.cls-3{fill:#2fc0d1;}.cls-2{stroke-width:7px;}</style></defs><g id="Layer_2" data-name="Layer 2"><g id="Layer_2-2" data-name="Layer 2"><rect class="cls-1" x="5.5" y="5.5" width="130.47" height="200.93" rx="10.96"/><rect class="cls-1" x="22.2" y="22.72" width="97.59" height="93.42" rx="6.48"/><circle class="cls-1" cx="70.74" cy="161.42" r="31.84"/><path class="cls-2" d="M64,149.83v23.89a1,1,0,0,0,1.54.78l16.68-12.28a1,1,0,0,0,0-1.57L65.47,149A1,1,0,0,0,64,149.83Z"/></g><g id="Layer_3" data-name="Layer 3"><rect class="cls-3" x="32.86" y="61.8" width="6.04" height="15.26" rx="3.02"/><rect class="cls-3" x="79.72" y="61.84" width="6.04" height="15.26" rx="3.02"/><rect class="cls-3" x="103.2" y="61.84" width="6.04" height="15.26" rx="3.02"/><rect class="cls-3" x="44.36" y="55.98" width="6.04" height="26.72" rx="3.02"/><rect class="cls-3" x="67.98" y="56.07" width="6.04" height="26.72" rx="3.02"/><rect class="cls-3" x="91.58" y="55.98" width="6.04" height="26.72" rx="3.02"/><rect class="cls-3" x="56.28" y="50.34" width="6.04" height="38.12" rx="3.02"/></g></g></svg>